<?xml version="1.0" encoding="utf-8"?>
<!-- Generator: Adobe Illustrator 16.0.4, SVG Export Plug-In . SVG Version: 6.00 Build 0)  -->
<!DOCTYPE svg PUBLIC "-//W3C//DTD SVG 1.1//EN" "http://www.w3.org/Graphics/SVG/1.1/DTD/svg11.dtd">
<svg version="1.1" id="Layer_1" xmlns="http://www.w3.org/2000/svg" xmlns:xlink="http://www.w3.org/1999/xlink" x="0px" y="0px"
	 width="566.93px" height="566.93px" viewBox="0 0 566.93 566.93" enable-background="new 0 0 566.93 566.93" xml:space="preserve">
<path fill="#182E40" d="M287.922,227.943c-4.009,0-7.701,1.107-10.919,3.007c-3.06,1.793-5.592,4.378-7.438,7.438
	c-1.899,3.218-3.007,6.911-3.007,10.92v19.254v10.445v60.032h8.651c0.95,0,1.741-0.791,1.741-1.74v-58.344h17.197
	c0.95,0,1.742-0.791,1.742-1.741v-8.177v-0.527h-17.25h-1.688v-0.896v-17.62c0-0.211,0-0.475,0-0.686c0-0.211,0-0.475,0-0.686
	c0.317-5.486,4.695-9.812,10.128-10.234c0.264,0,0.527-0.053,0.791-0.053s0.527,0,0.792,0.053h12.66l0,0
	c0.95,0,1.741-0.792,1.741-1.741v-2.374v-6.33H287.922z M551.737,328.542L551.737,328.542c-5.803-0.053-10.498-4.536-10.92-10.181
	c0-0.264-0.053-0.527-0.053-0.792c0-0.264,0-0.527,0.053-0.791v-17.566v-20.257h17.197c0.949,0,1.741-0.791,1.741-1.741v-8.704
	h-18.938v-38.826c0-0.95-0.791-1.741-1.741-1.741h-8.651v40.566v10.445v38.087v1.108c0.105,3.797,1.214,7.385,3.007,10.444
	c1.794,3.007,4.379,5.539,7.386,7.386c3.218,1.898,6.91,3.006,10.92,3.006v0.053h13.451c0.95,0,1.741-0.791,1.741-1.74v-4.643
	v-4.009h-15.192V328.542z M500.093,271.569c-3.218-1.899-6.911-3.007-10.92-3.007l0,0h-20.415l0,0c-4.01,0-7.702,1.108-10.92,3.007
	c-3.06,1.794-5.592,4.378-7.438,7.385c-1.898,3.218-3.007,6.963-3.007,10.92v49.111h8.651c0.95,0,1.741-0.791,1.741-1.74v-29.014
	v-17.566c0-0.264-0.053-0.527-0.053-0.791s0-0.527,0.053-0.792c0.369-5.591,4.959-10.023,10.656-10.181c0.105,0,0.211,0,0.264,0
	c0.105,0,0.211,0,0.264,0h1.793h16.248h1.794c0.105,0,0.211,0,0.264,0c0.105,0,0.211,0,0.264,0
	c5.697,0.158,10.287,4.59,10.656,10.234c0,0.212,0,0.476,0,0.687s0,0.475,0,0.686v17.619v29.014c0,0.949,0.791,1.74,1.74,1.74h8.651
	V289.77c0-4.01-1.107-7.755-3.007-10.92C505.685,275.895,503.152,273.363,500.093,271.569z M424.551,278.955
	c-1.793-3.007-4.378-5.591-7.385-7.385c-3.218-1.899-6.964-3.007-10.92-3.007l0,0h-20.151l0,0c-4.01,0-7.702,1.108-10.92,3.007
	c-3.06,1.794-5.592,4.378-7.438,7.385c-1.898,3.218-3.007,6.963-3.007,10.92v27.747c0,4.009,1.108,7.702,3.007,10.92
	c1.794,3.06,4.379,5.592,7.438,7.438c3.218,1.898,6.91,3.006,10.92,3.006h20.151c4.009,0,7.755-1.107,10.92-3.006
	c3.06-1.794,5.592-4.379,7.385-7.386c1.899-3.218,3.007-6.911,3.007-10.92l0,0v-27.747l0,0
	C427.558,285.865,426.503,282.12,424.551,278.955z M417.166,299.317v8.862v9.442c0,5.803-4.537,10.551-10.234,10.92
	c-0.211,0-0.475,0-0.686,0s-0.475,0-0.686,0h-1.108h-16.511h-1.108c-0.211,0-0.475,0-0.686,0s-0.475,0-0.686,0
	c-5.486-0.316-9.812-4.694-10.234-10.128c0-0.264-0.053-0.527-0.053-0.792c0-0.264,0-0.527,0.053-0.791v-8.651v-8.915v-8.651
	c0-0.264-0.053-0.527-0.053-0.791s0-0.527,0.053-0.792c0.369-5.592,4.959-10.023,10.656-10.181c0.105,0,0.211,0,0.264,0
	c0.105,0,0.211,0,0.264,0h1.53h16.511h1.53c0.105,0,0.211,0,0.264,0c0.105,0,0.211,0,0.264,0c5.908,0.158,10.656,5.012,10.656,10.92
	V299.317L417.166,299.317z M335.241,268.562c-4.009,0-7.702,1.108-10.92,3.007c-3.06,1.794-5.592,4.378-7.438,7.385
	c-1.899,3.218-3.007,6.963-3.007,10.92v49.111h8.651c0.949,0,1.74-0.791,1.74-1.74v-29.014v-17.619c0-0.211,0-0.475,0-0.686
	s0-0.475,0-0.686c0.369-5.592,4.959-10.076,10.656-10.235c0.105,0,0.211,0,0.264,0c0.105,0,0.211,0,0.264,0h16.67
	c0.422,0,0.791-0.158,1.107-0.369c0.37-0.316,0.634-0.791,0.634-1.372v-8.757L335.241,268.562L335.241,268.562z M236.278,271.569
	c-3.218-1.899-6.911-3.007-10.92-3.007l0,0h-20.415l0,0c-4.009,0-7.702,1.108-10.919,3.007c-3.06,1.794-5.592,4.378-7.438,7.385
	c-1.899,3.218-3.007,6.963-3.007,10.92v49.111h8.651c0.95,0,1.741-0.791,1.741-1.74v-29.014v-17.619c0-0.211,0-0.475,0-0.686
	s0-0.475,0-0.686c0.37-5.592,4.959-10.076,10.656-10.235c0.105,0,0.211,0,0.264,0c0.105,0,0.211,0,0.264,0h1.793h16.248h1.793
	c0.105,0,0.211,0,0.264,0c0.105,0,0.211,0,0.264,0c5.645,0.159,10.234,4.59,10.656,10.181c0,0.265,0.053,0.528,0.053,0.792
	s0,0.527-0.053,0.791v17.566v29.014c0,0.949,0.791,1.74,1.741,1.74h8.651V289.98c0-4.01-1.108-7.755-3.007-10.92
	C241.87,275.895,239.337,273.363,236.278,271.569z M162.002,227.943h-8.651v109.303c0,0.949,0.792,1.74,1.741,1.74h8.651V229.684
	C163.743,228.734,163.005,227.943,162.002,227.943z"/>
<polygon fill="#006C85" points="0,227.943 0,246.037 0,315.301 31.335,272.15 41.622,257.907 "/>
<polygon fill="#72C2D7" points="69.739,308.812 111.044,338.986 111.044,320.418 111.044,251.629 "/>
<polygon fill="#00566C" points="80.605,227.943 63.408,227.943 0,227.943 39.512,260.861 50.22,269.776 69.211,285.549 
	111.044,227.943 "/>
<polygon fill="#0096B8" points="71.743,305.753 42.043,281.065 0,338.986 30.438,338.986 47.635,338.986 111.044,338.986 "/>
</svg>
